<svg width="256" height="256" viewBox="0 0 256 256" fill="none" xmlns="http://www.w3.org/2000/svg">
  <rect x="20" y="20" width="216" height="216" rx="42" fill="#F7FBFF" stroke="#CFE2F5" stroke-width="4"/>

  <!-- Toit mairie -->
  <path d="M52 104L128 58L204 104V116H52V104Z" fill="#0D4A75"/>

  <!-- Corps du bâtiment -->
  <rect x="60" y="116" width="136" height="84" rx="8" fill="#FFFFFF" stroke="#BBD3EA" stroke-width="3"/>

  <!-- Drapeau -->
  <rect x="124" y="76" width="6" height="40" fill="#0D4A75"/>
  <rect x="130" y="76" width="18" height="12" fill="#0E5A35"/>
  <rect x="130" y="88" width="18" height="12" fill="#B5212B"/>
  <rect x="130" y="100" width="18" height="12" fill="#D7A100"/>

  <!-- Porte -->
  <rect x="114" y="154" width="28" height="46" rx="5" fill="#0D4A75"/>

  <!-- Fenêtres -->
  <rect x="78" y="134" width="20" height="16" rx="3" fill="#DDEBFA"/>
  <rect x="158" y="134" width="20" height="16" rx="3" fill="#DDEBFA"/>
  <rect x="78" y="162" width="20" height="16" rx="3" fill="#DDEBFA"/>
  <rect x="158" y="162" width="20" height="16" rx="3" fill="#DDEBFA"/>

  <!-- Base -->
  <rect x="50" y="200" width="156" height="10" rx="5" fill="#0D4A75" opacity="0.22"/>
</svg>
